<?xml version="1.0" encoding="UTF-8"?>
<svg version="1.1" xmlns="http://www.w3.org/2000/svg" width="512" height="512">
<path d="M0 0 C2.68023058 2.28831372 5.17990676 4.71430152 7.68798828 7.19116211 C8.42404297 7.86405273 9.16009766 8.53694336 9.91845703 9.23022461 C20.95593404 19.58474396 32.5642063 34.63906019 36.18798828 49.56616211 C37.22769547 53.25442444 37.22769547 53.25442444 39.64501953 54.06616211 C41.98807266 54.56352662 44.31386174 54.88167048 46.68798828 55.19116211 C53.77134589 57.64309359 55.9381658 62.73805498 59.15673828 69.08959961 C59.66205078 70.07186523 60.16736328 71.05413086 60.68798828 72.06616211 C61.14173828 72.99170898 61.59548828 73.91725586 62.06298828 74.87084961 C65.02164296 79.0954671 69.36461938 79.4123921 74.20654297 80.43237305 C91.10128338 84.01183358 114.98714149 90.30101871 125.27001953 105.53491211 C127.75100166 110.18248193 128.06411274 115.00422995 128.68798828 120.19116211 C128.77967285 120.93076172 128.87135742 121.67036133 128.96582031 122.43237305 C130.21672915 133.00265852 130.79048417 143.39155094 130.46142578 154.02319336 C129.89905096 173.66960553 130.20741545 188.4710767 139.34960938 206.31860352 C141.81273759 211.60520816 143.38852488 217.1599878 145.00048828 222.75366211 C145.32476807 223.87522705 145.64904785 224.99679199 145.9831543 226.15234375 C149.58719452 238.96577989 152.68290029 252.02313229 154.68798828 265.19116211 C154.81302734 265.99295898 154.93806641 266.79475586 155.06689453 267.62084961 C155.7782325 277.09526593 151.15190109 284.23340086 146.68798828 292.19116211 C145.68586782 294.02665304 144.68460979 295.86261501 143.68408203 297.69897461 C134.98247044 313.51537865 125.42667833 328.58638441 114.43017578 342.90600586 C111.88173321 346.24869398 110.44900057 348.21353217 110.37939453 352.40991211 C110.35651367 353.25013916 110.33363281 354.09036621 110.31005859 354.95605469 C110.28057129 356.30993286 110.28057129 356.30993286 110.25048828 357.69116211 C109.51494644 378.02539141 106.30760061 398.45559472 95.68798828 416.19116211 C95.19427734 417.04323242 94.70056641 417.89530273 94.19189453 418.77319336 C88.0779715 424.67727816 78.04131166 426.07321273 69.93798828 427.81616211 C68.95717285 428.02781006 67.97635742 428.23945801 66.96582031 428.45751953 C59.86108426 429.9127405 52.78613591 430.87639033 45.56298828 431.50366211 C44.5973999 431.5885791 43.63181152 431.67349609 42.63696289 431.76098633 C37.44714889 432.15726509 32.68535873 432.02824518 27.50048828 431.44116211 C24.38185701 431.34603145 22.53772851 431.52059626 20.06005859 433.47583008 C16.12301539 437.34752341 12.90599755 441.72247995 9.68798828 446.19116211 C5.16176877 452.03323528 5.16176877 452.03323528 1.68798828 453.19116211 C0.45048828 453.14991211 -0.78701172 453.10866211 -2.06201172 453.06616211 C-5.32511989 453.39851572 -6.16538423 454.01810757 -8.32763672 456.57006836 C-9.69145744 458.67217786 -11.02190691 460.79619847 -12.32373047 462.93725586 C-15.2438388 467.71613649 -18.68957313 471.93138244 -22.31201172 476.19116211 C-23.12283203 477.14893555 -23.93365234 478.10670898 -24.76904297 479.09350586 C-33.07589292 488.65442419 -46.21987416 503.02594775 -59.46875 504.41772461 C-66.1342696 504.67896386 -71.51269949 503.20167909 -77.68701172 500.81616211 C-79.10397339 500.28357788 -79.10397339 500.28357788 -80.54956055 499.74023438 C-94.31191128 494.42814815 -111.0240215 487.91070087 -121.92358398 477.67822266 C-129.1416735 471.6322326 -137.20550194 472.41024461 -146.14025879 472.48403931 C-150.7671933 472.51724524 -155.39261463 472.44345466 -160.01904297 472.37866211 C-160.9245993 472.36793167 -161.83015564 472.35720123 -162.76315308 472.34614563 C-181.79499308 472.07579025 -218.87924563 470.8321472 -233.96826172 457.91772461 C-234.74169922 457.01795898 -235.51513672 456.11819336 -236.31201172 455.19116211 C-236.73998047 454.69583984 -237.16794922 454.20051758 -237.60888672 453.69018555 C-249.92715253 439.1861355 -260.27317394 423.22146405 -270.0871582 406.95629883 C-270.59706299 406.11599121 -271.10696777 405.27568359 -271.63232422 404.40991211 C-272.07850098 403.66676758 -272.52467773 402.92362305 -272.984375 402.15795898 C-275.05787149 399.08622531 -276.40004949 397.43916335 -280.02685547 396.45288086 C-281.09033203 396.26338867 -282.15380859 396.07389648 -283.24951172 395.87866211 C-298.26885695 392.6542643 -308.8935345 383.99080313 -319.31201172 373.19116211 C-320.11380859 372.4112793 -320.91560547 371.63139648 -321.74169922 370.82788086 C-329.26576401 363.10942533 -341.31023195 350.18146534 -341.62060547 338.99194336 C-341.43707385 333.74272056 -340.41354597 328.73755299 -339.24951172 323.62866211 C-338.91777954 322.14450806 -338.91777954 322.14450806 -338.5793457 320.63037109 C-334.97648539 304.94145112 -330.64440975 289.43388405 -324.28076172 274.62866211 C-322.26910197 267.49051463 -324.71076233 261.579497 -327.37451172 255.00366211 C-330.6745997 246.48722169 -333.23261442 237.81014891 -335.62451172 229.00366211 C-335.96168213 227.76269775 -336.29885254 226.5217334 -336.64624023 225.24316406 C-343.17631487 200.95537699 -343.17631487 200.95537699 -337.99951172 191.62866211 C-335.64341675 187.59932636 -333.0711556 183.82103894 -330.22607422 180.12084961 C-324.58740226 173.31779907 -324.58740226 173.31779907 -322.17529297 165.15600586 C-322.96965223 162.32482799 -324.05949049 159.8488556 -325.31201172 157.19116211 C-325.89853022 155.14096576 -326.43994494 153.07736258 -326.93701172 151.00366211 C-327.17677734 150.08198242 -327.41654297 149.16030273 -327.66357422 148.21069336 C-331.00886612 132.63291842 -329.86948233 116.60168981 -326.31201172 101.19116211 C-326.06837891 100.07741211 -325.82474609 98.96366211 -325.57373047 97.81616211 C-321.73923955 83.568575 -308.45122125 75.63264005 -296.42529297 68.47241211 C-293.75044444 66.97663376 -291.05135521 65.5648623 -288.31201172 64.19116211 C-287.05904297 63.54727539 -287.05904297 63.54727539 -285.78076172 62.89038086 C-278.8311173 59.50975564 -271.64755046 57.37794026 -264.22998047 55.30444336 C-263.22559937 55.01549194 -263.22559937 55.01549194 -262.20092773 54.72070312 C-260.53155586 54.25270938 -258.84820969 53.83520032 -257.16357422 53.42553711 C-253.37510175 51.7855956 -251.13015226 49.19716241 -248.49951172 46.12866211 C-247.44753742 44.94641539 -246.3941421 43.76543164 -245.33935547 42.58569336 C-244.82614746 42.0064209 -244.31293945 41.42714844 -243.78417969 40.83032227 C-238.77023748 35.24763438 -233.34750836 30.05826279 -227.64404297 25.18725586 C-225.83074255 23.6351679 -224.0424612 22.06454154 -222.26123047 20.47631836 C-198.05340892 -0.92282226 -198.05340892 -0.92282226 -185.48388672 -1.04711914 C-184.27783783 -1.06174194 -184.27783783 -1.06174194 -183.04742432 -1.07666016 C-154.02360658 -1.35349272 -125.15790214 0.1282847 -96.79248047 6.70361328 C-88.8405347 8.52438057 -88.8405347 8.52438057 -81.24951172 5.99194336 C-80.61013672 5.50081055 -79.97076172 5.00967773 -79.31201172 4.50366211 C-59.34640689 -9.43206206 -20.56128572 -16.27166654 0 0 Z " fill="#EC9FD2" transform="translate(349.31201171875,7.808837890625)"/>
<path d="M0 0 C1.71558105 0.01123901 1.71558105 0.01123901 3.46582031 0.02270508 C24.88212055 0.29289945 45.07522383 4.68691395 65.4375 11.25 C66.45465088 11.56984863 67.47180176 11.88969727 68.51977539 12.21923828 C69.47360107 12.53876465 70.42742676 12.85829102 71.41015625 13.1875 C72.2494165 13.46464844 73.08867676 13.74179688 73.95336914 14.02734375 C78.38606565 16.26536615 80.87810066 18.86049362 82.5534668 23.54541016 C82.80781494 24.78081543 83.06216309 26.0162207 83.32421875 27.2890625 C83.46736511 27.96282425 83.61051147 28.636586 83.75799561 29.33076477 C84.21370266 31.50850243 84.63984038 33.69062652 85.0625 35.875 C85.36632365 37.3875103 85.67044294 38.89996124 85.97485352 40.41235352 C88.98323729 55.5900259 90.5037262 70.20050775 90.625 85.6875 C90.6345874 86.75411865 90.6441748 87.8207373 90.65405273 88.91967773 C90.58131525 105.92305751 87.05327644 123.71737101 74.6875 136.1875 C73.5894306 137.21488907 72.48561906 138.23619035 71.375 139.25 C70.37041292 140.24539178 69.36897607 141.24401214 68.375 142.25 C69.07625 142.65089844 69.7775 143.05179688 70.5 143.46484375 C81.02292309 149.77001913 88.51806997 157.10288162 91.90332031 169.12646484 C95.47648998 185.21312623 90.65865055 201.99857149 83.375 216.25 C83.06433594 216.87632324 82.75367188 217.50264648 82.43359375 218.14794922 C77.57038236 227.9321573 72.16935948 236.93267026 65.58056641 245.64746094 C64.43485691 247.17043322 63.31622109 248.71366205 62.19921875 250.2578125 C53.86060773 261.69100859 44.57394598 272.43866241 34.375 282.25 C33.43635203 283.22806626 32.49871162 284.2071014 31.5625 285.1875 C27.67418816 288.85362259 23.60712803 288.4083052 18.5625 288.375 C17.79550781 288.37016602 17.02851563 288.36533203 16.23828125 288.36035156 C-18.07253649 288.0041346 -60.46742177 282.34445707 -86.78125 258.1875 C-96.36950869 248.11170273 -100.82269677 236.71353758 -100.75 222.9375 C-100.75386719 222.21626953 -100.75773437 221.49503906 -100.76171875 220.75195312 C-100.75290308 215.83721582 -100.317757 211.11579323 -99.625 206.25 C-100.78515625 206.75660156 -100.78515625 206.75660156 -101.96875 207.2734375 C-115.65921504 213.13593862 -126.93868056 215.54792644 -141.5234375 210.5703125 C-162.88186946 201.47818403 -174.26756897 178.67665824 -182.69140625 158.33984375 C-189.44654406 141.49027195 -194.13983 124.04926105 -197.625 106.25 C-197.90505943 104.94505642 -198.18636465 103.64037974 -198.46875 102.3359375 C-202.24557969 84.40620701 -202.24557969 84.40620701 -200.625 76.25 C-198.48046875 73.69921875 -198.48046875 73.69921875 -195.625 71.25 C-194.66207031 70.3734375 -193.69914062 69.496875 -192.70703125 68.59375 C-165.7376117 44.92789712 -130.65176894 20.26275962 -93.4375 19 C-81.73150266 19.76760638 -71.40432942 23.26024625 -62.625 31.25 C-61.26306916 32.89338065 -59.92344039 34.55600823 -58.625 36.25 C-58.27308594 35.34378906 -57.92117187 34.43757813 -57.55859375 33.50390625 C-51.71807124 19.09321756 -44.85161619 10.70135754 -30.171875 4.15625 C-20.41698283 0.64729598 -10.28078752 -0.08957791 0 0 Z " fill="#DD63A5" transform="translate(275.625,115.75)"/>
<path d="M0 0 C1.28084473 0.30429932 2.56168945 0.60859863 3.88134766 0.92211914 C31.17180238 7.58291926 66.64935495 17.88807646 83.0625 42.6875 C86.39137532 48.45517703 87.65042534 54.55895938 88.8125 61.0625 C87.52601563 60.8459375 86.23953125 60.629375 84.9140625 60.40625 C60.14367622 56.48963448 33.96252774 54.47862817 11.8125 68.0625 C3.10206861 74.56314215 -1.27445107 83.78115082 -4.1875 94.0625 C-4.826875 93.381875 -5.46625 92.70125 -6.125 92 C-15.78080302 82.47943231 -25.9939045 77.11748164 -39.80859375 77.04296875 C-75.89774678 79.00072219 -106.23174606 99.7923882 -133.61816406 121.80615234 C-135.15125762 123.0334858 -136.69660225 124.24546634 -138.2421875 125.45703125 C-139.15226562 126.17246094 -140.06234375 126.88789063 -141 127.625 C-141.79019531 128.24503906 -142.58039063 128.86507812 -143.39453125 129.50390625 C-145.72393428 131.52881215 -146.13880085 132.54038122 -146.42578125 135.6171875 C-146.66932995 146.51278727 -144.59818265 156.48865917 -142.1875 167.0625 C-141.96787598 168.05813965 -141.74825195 169.0537793 -141.52197266 170.07958984 C-138.5163273 183.66987165 -134.96441927 196.8435226 -130.02246094 209.86230469 C-129.23944882 211.92561029 -128.48131819 213.99654617 -127.7265625 216.0703125 C-122.69559825 229.57951193 -115.85359468 242.29798547 -106.1875 253.0625 C-105.62546875 253.70574219 -105.0634375 254.34898437 -104.484375 255.01171875 C-95.89948202 264.25853105 -84.92012131 268.98353418 -72.375 269.5 C-62.92367602 269.25387177 -53.67487531 266.10410729 -45.1875 262.0625 C-45.3525 263.196875 -45.5175 264.33125 -45.6875 265.5 C-47.41993969 281.91939105 -46.74077919 296.55430263 -36.1875 310.0625 C-35.25164062 311.30580078 -35.25164062 311.30580078 -34.296875 312.57421875 C-19.09441551 330.5074904 7.97990021 335.81463548 29.8125 340.0625 C23.93426348 350.49863068 15.08645101 355.1097347 3.98876953 358.46533203 C-7.66058275 361.6619122 -19.31598496 361.45775318 -31.3125 361.4375 C-32.34963135 361.43795319 -33.3867627 361.43840637 -34.45532227 361.43887329 C-52.94894429 361.41520641 -70.9462149 360.17704909 -89.1875 357.0625 C-89.8465332 356.95504456 -90.50556641 356.84758911 -91.18457031 356.73687744 C-93.22025351 356.40059601 -95.25068151 356.04157259 -97.28125 355.67578125 C-99.08625977 355.35734253 -99.08625977 355.35734253 -100.92773438 355.0324707 C-105.37949883 353.70781071 -108.1619222 351.89249129 -110.4543457 347.80200195 C-110.75429443 346.97659912 -111.05424316 346.15119629 -111.36328125 345.30078125 C-111.71245605 344.35879883 -112.06163086 343.41681641 -112.42138672 342.44628906 C-112.7773291 341.43276367 -113.13327148 340.41923828 -113.5 339.375 C-113.88172363 338.32151367 -114.26344727 337.26802734 -114.65673828 336.18261719 C-125.38693 306.21956429 -125.38693 306.21956429 -128.12768555 291.50024414 C-128.99836212 288.81959973 -128.99836212 288.81959973 -131.80517578 287.6171875 C-133.8034377 287.00265708 -135.82398811 286.45858935 -137.85546875 285.96484375 C-147.41141532 283.37700828 -154.65683953 277.22515987 -161.1875 270.0625 C-162.00089844 269.25296875 -162.81429687 268.4434375 -163.65234375 267.609375 C-175.64880847 255.55745667 -183.62129352 240.80964902 -190.875 225.5625 C-191.214104 224.85077637 -191.55320801 224.13905273 -191.90258789 223.40576172 C-193.26420125 220.45169193 -194.1875 218.3538631 -194.1875 215.0625 C-194.8475 215.0625 -195.5075 215.0625 -196.1875 215.0625 C-202.69824551 198.34862075 -207.66927322 181.40629762 -212.1875 164.0625 C-212.40100098 163.24378418 -212.61450195 162.42506836 -212.83447266 161.58154297 C-215.00296036 153.10543972 -215.28228771 148.440808 -210.9375 140.5625 C-207.48239761 134.77713732 -203.65481839 129.22025297 -199.8125 123.6875 C-199.28881836 122.93146484 -198.76513672 122.17542969 -198.22558594 121.39648438 C-197.7309082 120.70103516 -197.23623047 120.00558594 -196.7265625 119.2890625 C-196.28521973 118.66596191 -195.84387695 118.04286133 -195.38916016 117.40087891 C-194.9926123 116.95921387 -194.59606445 116.51754883 -194.1875 116.0625 C-193.5275 116.0625 -192.8675 116.0625 -192.1875 116.0625 C-191.97867188 115.39089844 -191.76984375 114.71929687 -191.5546875 114.02734375 C-189.7138713 110.03540233 -187.11820594 106.98454377 -184.3125 103.625 C-183.73024658 102.92052734 -183.14799316 102.21605469 -182.5480957 101.49023438 C-181.34513586 100.03905507 -180.13882163 98.59064997 -178.92919922 97.14501953 C-177.35156673 95.25867174 -175.78619959 93.36286325 -174.22265625 91.46484375 C-154.16233118 67.34567376 -126.6322986 40.22765072 -94.1875 35.0625 C-92.68851446 34.92706177 -91.1883531 34.80428291 -89.6875 34.69140625 C-80.15666048 34.47944578 -80.15666048 34.47944578 -72.25 30 C-71.52683594 29.06220703 -71.52683594 29.06220703 -70.7890625 28.10546875 C-68.82430441 25.59920417 -66.6079783 23.80532264 -64.125 21.8125 C-63.18011719 21.05324219 -62.23523438 20.29398438 -61.26171875 19.51171875 C-60.24722656 18.70347656 -59.23273438 17.89523438 -58.1875 17.0625 C-57.08963368 16.17343642 -55.99198347 15.28410594 -54.89453125 14.39453125 C-51.97454932 12.04054068 -49.01495856 9.74444391 -46.02880859 7.47509766 C-44.7896884 6.52448119 -43.56090099 5.56025909 -42.34228516 4.58349609 C-40.50574683 3.11939246 -38.63506667 1.71332707 -36.75 0.3125 C-35.9470752 -0.3515686 -35.9470752 -0.3515686 -35.12792969 -1.02905273 C-25.66452574 -7.79234534 -10.35029836 -2.48331845 0 0 Z " fill="#EC9FD2" transform="translate(222.1875,58.9375)"/>
<path d="M0 0 C2.68023058 2.28831372 5.17990676 4.71430152 7.68798828 7.19116211 C8.42404297 7.86405273 9.16009766 8.53694336 9.91845703 9.23022461 C22.23946359 20.78885351 33.29007313 36.77227889 37.68798828 53.19116211 C31.79792982 52.11509374 25.98953531 50.79306189 20.18798828 49.31616211 C17.35584183 48.60302208 14.52242868 47.89512821 11.68798828 47.19116211 C10.9917334 47.01794434 10.29547852 46.84472656 9.578125 46.66625977 C-21.32558232 39.08853075 -59.99706596 32.98786265 -88.87451172 49.67163086 C-92.43008103 51.94649346 -95.09020869 53.92499848 -97.81201172 57.19116211 C-98.63701172 57.85116211 -99.46201172 58.51116211 -100.31201172 59.19116211 C-103.62653641 58.81694158 -106.16488101 58.18522747 -109.31201172 57.19116211 C-111.64305308 56.55766734 -113.97663305 55.93347558 -116.31201172 55.31616211 C-116.94800293 55.14632812 -117.58399414 54.97649414 -118.23925781 54.80151367 C-120.26262845 54.26134909 -122.28712493 53.72561356 -124.31201172 53.19116211 C-125.35035156 52.9153833 -125.35035156 52.9153833 -126.40966797 52.6340332 C-130.67191759 51.51646821 -134.94101651 50.50627424 -139.25830078 49.6237793 C-141.20029752 49.21469487 -143.12813121 48.73997585 -145.05419922 48.26147461 C-153.8754974 46.72486138 -158.57216016 48.81612041 -165.74951172 53.81616211 C-169.00023821 56.19859084 -172.16312457 58.67627909 -175.31201172 61.19116211 C-176.75964306 62.31652923 -178.20754926 63.44154291 -179.65576172 64.56616211 C-187.33970715 70.59450386 -187.33970715 70.59450386 -194.33935547 77.38256836 C-202.10180797 85.65916935 -208.39725891 86.58012829 -219.24511719 87.06518555 C-249.05623563 88.88216371 -276.15545359 115.6893725 -295.31201172 136.19116211 C-298.44835349 139.7596005 -301.39001437 143.44656448 -304.31201172 147.19116211 C-305.34495714 148.47159461 -306.38028012 149.75011133 -307.41748047 151.02709961 C-308.50747838 152.37332897 -309.59732307 153.71968241 -310.68701172 155.06616211 C-311.19965576 155.6971582 -311.7122998 156.3281543 -312.24047852 156.97827148 C-314.87566714 160.25901786 -317.25169999 163.50502617 -319.31201172 167.19116211 C-320.30201172 166.86116211 -321.29201172 166.53116211 -322.31201172 166.19116211 C-323.33339283 163.75439532 -324.13957353 161.46511356 -324.87451172 158.94116211 C-325.09067139 158.21388916 -325.30683105 157.48661621 -325.52954102 156.73730469 C-330.83441127 138.30848002 -330.60234624 119.77636669 -326.31201172 101.19116211 C-326.06837891 100.07741211 -325.82474609 98.96366211 -325.57373047 97.81616211 C-321.73923955 83.568575 -308.45122125 75.63264005 -296.42529297 68.47241211 C-293.75044444 66.97663376 -291.05135521 65.5648623 -288.31201172 64.19116211 C-287.05904297 63.54727539 -287.05904297 63.54727539 -285.78076172 62.89038086 C-278.8311173 59.50975564 -271.64755046 57.37794026 -264.22998047 55.30444336 C-263.22559937 55.01549194 -263.22559937 55.01549194 -262.20092773 54.72070312 C-260.53155586 54.25270938 -258.84820969 53.83520032 -257.16357422 53.42553711 C-253.37510175 51.7855956 -251.13015226 49.19716241 -248.49951172 46.12866211 C-247.44753742 44.94641539 -246.3941421 43.76543164 -245.33935547 42.58569336 C-244.82614746 42.0064209 -244.31293945 41.42714844 -243.78417969 40.83032227 C-238.77023748 35.24763438 -233.34750836 30.05826279 -227.64404297 25.18725586 C-225.83074255 23.6351679 -224.0424612 22.06454154 -222.26123047 20.47631836 C-198.05340892 -0.92282226 -198.05340892 -0.92282226 -185.48388672 -1.04711914 C-184.27783783 -1.06174194 -184.27783783 -1.06174194 -183.04742432 -1.07666016 C-154.02360658 -1.35349272 -125.15790214 0.1282847 -96.79248047 6.70361328 C-88.8405347 8.52438057 -88.8405347 8.52438057 -81.24951172 5.99194336 C-80.29044922 5.25524414 -80.29044922 5.25524414 -79.31201172 4.50366211 C-59.34640689 -9.43206206 -20.56128572 -16.27166654 0 0 Z " fill="#EFB7E4" transform="translate(349.31201171875,7.808837890625)"/>
<path d="M0 0 C0.99515625 0.45890625 1.9903125 0.9178125 3.015625 1.390625 C6.82869835 3.02370656 10.69817332 3.92038608 14.75 4.75 C31.00306941 8.37219491 53.69745361 14.69993128 63.58203125 29.34375 C66.06301337 33.99131982 66.37612446 38.81306784 67 44 C67.09168457 44.73959961 67.18336914 45.47919922 67.27783203 46.24121094 C68.52874086 56.81149641 69.10249589 67.20038883 68.7734375 77.83203125 C68.21106268 97.47844342 68.51942717 112.27991459 77.66162109 130.12744141 C80.12474931 135.41404605 81.7005366 140.96882569 83.3125 146.5625 C83.63677979 147.68406494 83.96105957 148.80562988 84.29516602 149.96118164 C87.89920624 162.77461778 90.994912 175.83197018 93 189 C93.12503906 189.80179688 93.25007812 190.60359375 93.37890625 191.4296875 C94.09024422 200.90410382 89.4639128 208.04223875 85 216 C83.99787954 217.83549093 82.99662151 219.6714529 81.99609375 221.5078125 C73.29448216 237.32421654 63.73869005 252.3952223 52.7421875 266.71484375 C50.19374493 270.05753187 48.76101229 272.02237006 48.69140625 276.21875 C48.66852539 277.05897705 48.64564453 277.8992041 48.62207031 278.76489258 C48.60241211 279.66747803 48.58275391 280.57006348 48.5625 281.5 C47.82695816 301.8342293 44.61961233 322.26443261 34 340 C33.50628906 340.85207031 33.01257813 341.70414062 32.50390625 342.58203125 C26.38961409 348.48647251 16.35350235 349.8812445 8.25 351.625 C7.27281006 351.83664795 6.29562012 352.0482959 5.28881836 352.26635742 C-8.51635907 355.10189039 -26.05469345 358.48632664 -40 355 C-38.67079496 352.18089964 -37.17368712 349.73168018 -35.3125 347.234375 C-34.78350098 346.51717285 -34.25450195 345.7999707 -33.70947266 345.06103516 C-33.14534668 344.29839355 -32.5812207 343.53575195 -32 342.75 C-26.31482638 334.97053774 -21.03831387 327.03359047 -16.07275391 318.77832031 C-15.0866008 317.14355945 -14.08129985 315.52038962 -13.07421875 313.8984375 C-2.87027438 297.11057338 6.44888102 275.74151427 8 256 C8.08121094 254.99453125 8.16242188 253.9890625 8.24609375 252.953125 C8.5376406 245.70862747 7.37897667 239.36571445 5.33544922 232.46777344 C3.91106716 227.52542938 3.79952313 224.34077883 6.1640625 219.73022461 C6.64617187 218.96202393 7.12828125 218.19382324 7.625 217.40234375 C8.1627002 216.52787598 8.70040039 215.6534082 9.25439453 214.75244141 C9.83044434 213.82351074 10.40649414 212.89458008 11 211.9375 C17.24122078 201.64318129 22.44041845 191.13386193 27 180 C27.29874023 179.30745117 27.59748047 178.61490234 27.90527344 177.90136719 C28.18145508 177.23008789 28.45763672 176.55880859 28.7421875 175.8671875 C29.10739502 174.99876221 29.10739502 174.99876221 29.47998047 174.11279297 C30.86392225 168.48996098 29.93598604 163.977146 27.6640625 158.76953125 C27.17679687 157.63708984 26.68953125 156.50464844 26.1875 155.33789062 C25.671875 154.17451172 25.15625 153.01113281 24.625 151.8125 C24.11710937 150.63751953 23.60921875 149.46253906 23.0859375 148.25195312 C20.60374155 142.44775126 20.60374155 142.44775126 17.82568359 136.78393555 C16.61640387 134.17121912 17.1582647 132.71945252 18 130 C18.45375 129.13375 18.9075 128.2675 19.375 127.375 C23.24863938 119.32974899 24.61600106 110.85524827 25 102 C25.05285156 100.92621094 25.10570312 99.85242188 25.16015625 98.74609375 C25.98144369 66.21596953 15.46307318 33.51697827 1.21484375 4.6328125 C0 2 0 2 0 0 Z " fill="#EFB7E4" transform="translate(411,84)"/>
<path d="M0 0 C1.71611486 2.57417229 2.94556415 4.92452226 4.21484375 7.7265625 C13.01349443 26.84019574 23.06244562 46.78120756 40 60 C40.76054688 60.59683594 41.52109375 61.19367188 42.3046875 61.80859375 C48.94990052 66.74473441 56.47688096 70.89214157 64.66796875 72.53515625 C68.63367097 75.02617523 68.93519044 79.25947129 70 83.625 C70.51294465 85.55895983 71.02727874 87.49255165 71.54296875 89.42578125 C71.91494385 90.85784912 71.91494385 90.85784912 72.29443359 92.31884766 C75.10861735 103.01274594 78.78094721 113.42918818 82.5625 123.8125 C82.93866455 124.86993408 83.3148291 125.92736816 83.70239258 127.0168457 C84.07001709 128.00773193 84.4376416 128.99861816 84.81640625 130.01953125 C85.14068604 130.90745361 85.46496582 131.79537598 85.79907227 132.71020508 C87.23219097 135.44271582 88.31304774 136.48688362 91 138 C94.15726839 138.9431986 94.15726839 138.9431986 97.71875 139.5546875 C98.70264709 139.7395723 98.70264709 139.7395723 99.7064209 139.92819214 C106.57102886 141.17765964 113.47813077 142.07276186 120.40673828 142.88037109 C122.49999392 143.12499929 124.59176694 143.38018778 126.68359375 143.63671875 C128.07018673 143.80313465 129.45690549 143.96850599 130.84375 144.1328125 C131.85657547 144.2532769 131.85657547 144.2532769 132.88986206 144.37617493 C136.33965052 144.76686682 139.76520436 145.05849348 143.23486328 145.19604492 C143.91625366 145.2258847 144.59764404 145.25572449 145.29968262 145.28646851 C147.1726599 145.35878678 149.0465769 145.40546443 150.92041016 145.45043945 C154.60575337 146.10809821 155.65814264 147.11652351 157.875 150.0625 C158.38417969 150.87589844 158.89335937 151.68929687 159.41796875 152.52734375 C170.31405619 169.55752486 195.08566463 176.17413903 213.5625 180.3125 C238.90914771 185.75292687 264.2900873 186.1443765 290.125 186.5625 C292.64453666 186.60580606 295.16406799 186.64942365 297.68359375 186.69335938 C303.78900575 186.79915903 309.89447198 186.90113424 316 187 C315.21576089 188.43313809 314.42886565 189.86482288 313.64086914 191.29589844 C312.98399864 192.49203766 312.98399864 192.49203766 312.31385803 193.71234131 C302.20662587 211.31081612 285.56915952 227.77242078 267.671875 237.29296875 C259.4939805 239.45700224 252.3170886 237.59692745 244.625 234.625 C243.68035889 234.26994385 242.73571777 233.9148877 241.76245117 233.54907227 C228.00010044 228.23698604 211.28799022 221.71953877 200.38842773 211.48706055 C193.17033822 205.44107049 185.10650978 206.2190825 176.17175293 206.2928772 C171.54481842 206.32608313 166.91939709 206.25229256 162.29296875 206.1875 C161.38741241 206.17676956 160.48185608 206.16603912 159.54885864 206.15498352 C140.51701864 205.88462814 103.43276609 204.64098509 88.34375 191.7265625 C87.5703125 190.82679688 86.796875 189.92703125 86 189 C85.57203125 188.50467773 85.1440625 188.00935547 84.703125 187.49902344 C72.38485919 172.9949734 62.03883778 157.03030194 52.22485352 140.76513672 C51.45999634 139.50467529 51.45999634 139.50467529 50.6796875 138.21875 C50.23351074 137.47560547 49.78733398 136.73246094 49.32763672 135.96679688 C47.25414023 132.8950632 45.91196223 131.24800124 42.28515625 130.26171875 C41.22167969 130.07222656 40.15820312 129.88273438 39.0625 129.6875 C24.04315477 126.46310219 13.41847722 117.79964102 3 107 C2.19820312 106.22011719 1.39640625 105.44023437 0.5703125 104.63671875 C-6.95375229 96.91826323 -18.99822023 83.99030323 -19.30859375 72.80078125 C-19.12506213 67.55155845 -18.10153425 62.54639088 -16.9375 57.4375 C-16.71634521 56.44806396 -16.49519043 55.45862793 -16.26733398 54.43920898 C-12.64860591 38.68119168 -8.14870846 23.17015306 -2.1640625 8.14453125 C-1.15082383 5.40742678 -0.46534965 2.87326355 0 0 Z " fill="#EFB7E4" transform="translate(27,274)"/>
<path d="M0 0 C5.27015568 5.27015568 6.26788268 17.38500904 6.4375 24.5625 C5.63384483 45.08082113 -2.24559336 65.17360645 -12 83 C-12.70711336 84.32677916 -13.41414361 85.65360261 -14.12109375 86.98046875 C-21.4468438 100.53203605 -30.21225687 113.00416388 -39.80859375 125.03515625 C-41.41591551 127.20976805 -42.69645876 129.17347347 -43.9765625 131.51953125 C-45.89087182 134.97477654 -48.23320949 137.7332009 -50.9375 140.625 C-51.77152344 141.52476562 -52.60554687 142.42453125 -53.46484375 143.3515625 C-61.67296007 151.92645135 -61.67296007 151.92645135 -65.4125824 152.13371277 C-66.42812698 152.13752457 -67.44367157 152.14133636 -68.48999023 152.14526367 C-70.22097206 152.15483345 -70.22097206 152.15483345 -71.98692322 152.16459656 C-73.87865013 152.16626579 -73.87865013 152.16626579 -75.80859375 152.16796875 C-77.11788345 152.17129715 -78.42717316 152.17462555 -79.77613831 152.17805481 C-82.56976132 152.18406338 -85.3633534 152.18589402 -88.15698242 152.18530273 C-90.96596926 152.1852229 -93.77478808 152.19192501 -96.58374023 152.20581055 C-120.5269617 152.32241119 -144.51447661 152.14651901 -168 147 C-169.49390742 146.7281677 -170.98875952 146.46149059 -172.484375 146.19921875 C-193.40542501 142.40069805 -216.35058397 134.26515537 -230 117 C-231.0205529 115.01040914 -232.02293397 113.01130355 -233 111 C-232.10917725 110.98541748 -231.21835449 110.97083496 -230.30053711 110.95581055 C-226.91734282 110.89386011 -223.5348456 110.8195616 -220.15209961 110.73754883 C-218.70265513 110.70479212 -217.25309809 110.67661659 -215.8034668 110.65356445 C-197.41767553 110.3536227 -179.7427308 108.15936974 -165.86328125 94.98828125 C-163.94826555 93.13427165 -163.94826555 93.13427165 -163 91 C-160.41633755 91.14120016 -157.83317115 91.28778333 -155.25 91.4375 C-154.52039063 91.47681641 -153.79078125 91.51613281 -153.0390625 91.55664062 C-149.56476353 91.76194011 -146.35994751 92.13193232 -143 93 C-135.36761144 93.84572295 -127.67507761 94.12854565 -120 94.25 C-118.94196167 94.28202515 -118.94196167 94.28202515 -117.86254883 94.31469727 C-112.34271589 94.35085194 -108.33527524 93.1876732 -104.26953125 89.37890625 C-103.78871094 88.77949219 -103.30789063 88.18007813 -102.8125 87.5625 C-100.28424775 84.51405426 -97.69448607 81.55879387 -94.9934082 78.66137695 C-85.75928776 68.74663203 -77.75995589 58.06442749 -69.85546875 47.07421875 C-69.08976562 46.01630127 -69.08976562 46.01630127 -68.30859375 44.93701172 C-66.85581451 42.8919481 -66.85581451 42.8919481 -65.57421875 39.98828125 C-64 38 -64 38 -60.6640625 37.46875 C-59.31768016 37.46303645 -57.97115183 37.47444016 -56.625 37.5 C-39.44931107 37.10029463 -24.31443648 27.66176075 -12.50537109 15.62988281 C-7.97367287 10.72336038 -3.9745978 5.35944781 0 0 Z " fill="#EC9FD2" transform="translate(414,309)"/>
<path d="M0 0 C12.8349259 0.25669852 23.90144213 8.68504998 33 17 C33.69480469 17.62519531 34.38960938 18.25039062 35.10546875 18.89453125 C44.30913085 27.62055819 51.61814912 38.27684257 57.95507812 49.19970703 C58.67126697 50.43362678 59.39428585 51.66360022 60.12304688 52.89013672 C83.04781007 91.57805863 83.04781007 91.57805863 82 106 C81.07540579 109.09088955 79.81431065 111.9942654 78.5 114.9375 C78.1383374 115.76797852 77.7766748 116.59845703 77.40405273 117.45410156 C63.6348149 148.71012227 45.32849082 181.79845494 12 195 C10.56914062 195.57041016 10.56914062 195.57041016 9.109375 196.15234375 C5.40076006 197.16336064 1.93209824 197.22091527 -1.875 197.125 C-2.56335938 197.11597656 -3.25171875 197.10695313 -3.9609375 197.09765625 C-5.64077838 197.07432513 -7.32043746 197.03846326 -9 197 C-7.65560323 193.40115326 -6.01275441 190.03415262 -4.23266602 186.63208008 C4.38163444 170.08964512 10.08294436 152.37948817 6.31640625 133.58984375 C2.56272059 122.51569227 -5.15689462 114.32680154 -15.5625 109.0625 C-16.366875 108.711875 -17.17125 108.36125 -18 108 C-17.319375 107.484375 -16.63875 106.96875 -15.9375 106.4375 C-14.968125 105.633125 -13.99875 104.82875 -13 104 C-12.45730469 103.56042969 -11.91460937 103.12085938 -11.35546875 102.66796875 C-0.73541357 93.19861933 3.96149843 77.79631252 5 64 C5.74536724 44.71114919 4.76603403 25.85572775 0.5859375 7.00390625 C0 4 0 4 0 0 Z " fill="#E884BF" transform="translate(360,150)"/>
<path d="M0 0 C1.28084473 0.30429932 2.56168945 0.60859863 3.88134766 0.92211914 C31.17180238 7.58291926 66.64935495 17.88807646 83.0625 42.6875 C86.39137532 48.45517703 87.65042534 54.55895938 88.8125 61.0625 C87.52601563 60.8459375 86.23953125 60.629375 84.9140625 60.40625 C60.14367622 56.48963448 33.96252774 54.47862817 11.8125 68.0625 C3.10206861 74.56314215 -1.27445107 83.78115082 -4.1875 94.0625 C-4.826875 93.381875 -5.46625 92.70125 -6.125 92 C-15.78080302 82.47943231 -25.9939045 77.11748164 -39.80859375 77.04296875 C-61.20601055 78.20372933 -79.30464321 85.60522508 -97.5625 96.59375 C-100.1875 98.0625 -100.1875 98.0625 -102.1875 98.0625 C-105.88672175 86.96483475 -103.81835881 73.81204911 -99.0078125 63.44140625 C-89.08937852 45.03057922 -74.44795692 29.97890408 -58.1875 17.0625 C-57.09077992 16.17493112 -55.99443735 15.28689559 -54.8984375 14.3984375 C-51.97728536 12.04293838 -49.01643726 9.74556766 -46.02880859 7.47509766 C-44.7896884 6.52448119 -43.56090099 5.56025909 -42.34228516 4.58349609 C-40.50574683 3.11939246 -38.63506667 1.71332707 -36.75 0.3125 C-36.2147168 -0.1302124 -35.67943359 -0.5729248 -35.12792969 -1.02905273 C-25.66452574 -7.79234534 -10.35029836 -2.48331845 0 0 Z " fill="#E884BF" transform="translate(222.1875,58.9375)"/>
<path d="M0 0 C1.81297007 2.7194551 3.23972173 5.45934421 4.66381836 8.39404297 C13.08806342 25.72472218 23.42778876 42.39563004 42 50 C56.03161187 54.67720396 69.95850061 51.21023781 83 45 C82.835 46.134375 82.67 47.26875 82.5 48.4375 C80.76756031 64.85689105 81.44672081 79.49180263 92 93 C92.62390625 93.82886719 93.2478125 94.65773438 93.890625 95.51171875 C109.09308449 113.4449904 136.16740021 118.75213548 158 123 C152.12176348 133.43613068 143.27395101 138.0472347 132.17626953 141.40283203 C120.52691725 144.5994122 108.87151504 144.39525318 96.875 144.375 C95.83786865 144.37545319 94.8007373 144.37590637 93.73217773 144.37637329 C75.23855571 144.35270641 57.2412851 143.11454909 39 140 C38.3409668 139.89254456 37.68193359 139.78508911 37.00292969 139.67437744 C34.96724649 139.33809601 32.93681849 138.97907259 30.90625 138.61328125 C29.70291016 138.40098877 28.49957031 138.18869629 27.25976562 137.9699707 C22.80800117 136.64531071 20.0255778 134.82999129 17.7331543 130.73950195 C17.43320557 129.91409912 17.13325684 129.08869629 16.82421875 128.23828125 C16.47520508 127.29718506 16.12619141 126.35608887 15.76660156 125.38647461 C15.23244629 123.86485718 15.23244629 123.86485718 14.6875 122.3125 C14.30432617 121.2510376 13.92115234 120.1895752 13.52636719 119.09594727 C12.32732356 115.7383784 11.15884789 112.37163743 10 109 C9.63406738 107.94329102 9.26813477 106.88658203 8.89111328 105.79785156 C4.11097204 91.85921162 0.34732309 77.91361978 -2.49902344 63.45703125 C-2.97668542 61.11434599 -3.51736129 58.79460739 -4.0703125 56.46875 C-5.94510684 48.060469 -6.18148782 39.58539424 -6.1875 31 C-6.20586914 29.61941406 -6.20586914 29.61941406 -6.22460938 28.2109375 C-6.24219288 19.88807764 -5.1743442 12.07346979 -1.875 4.375 C-1.34519531 3.11816406 -1.34519531 3.11816406 -0.8046875 1.8359375 C-0.53914063 1.23007812 -0.27359375 0.62421875 0 0 Z " fill="#E884BF" transform="translate(94,276)"/>
<path d="M0 0 C0.928125 0.9590625 0.928125 0.9590625 1.875 1.9375 C7.4126106 7.4751106 13.3605905 12.6035773 19.3125 17.6875 C22.60787092 20.55014545 25.29492229 23.57887231 28 27 C28.99 27.99 28.99 27.99 30 29 C31.38685857 31.52523831 32.71063381 34.05093924 34 36.625 C34.35578125 37.31207031 34.7115625 37.99914062 35.078125 38.70703125 C38.73161859 45.97312111 40.28242088 52.31411405 40.125 60.5 C40.10695313 61.7271875 40.08890625 62.954375 40.0703125 64.21875 C40.04710937 65.1365625 40.02390625 66.054375 40 67 C37.39795158 67.79922237 34.79366419 68.58939928 32.1875 69.375 C31.46884766 69.59671875 30.75019531 69.8184375 30.00976562 70.046875 C2.88782973 78.17150778 -27.34669476 75.96916938 -52.41015625 62.7265625 C-53.96239295 61.85632244 -55.48692062 60.93666819 -57 60 C-56.63563585 45.92229437 -51.56894191 32.0459486 -41.3125 22.25 C-35.57465185 17.54950293 -28.94370947 15.03699953 -22.01953125 12.5703125 C-13.44574859 9.50624918 -6.54823368 6.54823368 0 0 Z " fill="#C9478D" transform="translate(249,215)"/>
<path d="M0 0 C1.75215331 2.62822997 3.03546269 5.08207296 4.35546875 7.9375 C4.80994385 8.90880859 5.26441895 9.88011719 5.73266602 10.88085938 C6.71450908 12.98591509 7.69544496 15.09139413 8.67553711 17.19726562 C11.11664248 22.35733877 13.50851093 27.00127966 17.0625 31.5 C21.63245456 38.14917559 21.08517597 46.42305824 21.55859375 54.2109375 C22.07225322 62.08704933 23.82691619 69.43717725 26 77 C26.20608887 77.73605469 26.41217773 78.47210938 26.62451172 79.23046875 C31.42110031 96.13512502 38.01692544 112.50899893 46.8828125 127.69921875 C47.43582031 128.83810547 47.43582031 128.83810547 48 130 C47.67 130.66 47.34 131.32 47 132 C28.9279148 127.80293103 15.9234787 120.3962889 3 107 C2.19820312 106.22011719 1.39640625 105.44023437 0.5703125 104.63671875 C-6.95375229 96.91826323 -18.99822023 83.99030323 -19.30859375 72.80078125 C-19.12506213 67.55155845 -18.10153425 62.54639088 -16.9375 57.4375 C-16.71634521 56.44806396 -16.49519043 55.45862793 -16.26733398 54.43920898 C-12.64860591 38.68119168 -8.14870846 23.17015306 -2.1640625 8.14453125 C-1.15082383 5.40742678 -0.46534965 2.87326355 0 0 Z " fill="#F3D1F6" transform="translate(27,274)"/>
<path d="M0 0 C4.07308673 2.953629 7.63430556 6.32920034 11.20947266 9.85986328 C11.94552734 10.53275391 12.68158203 11.20564453 13.43994141 11.89892578 C25.76094796 23.45755469 36.81155751 39.44098006 41.20947266 55.85986328 C35.31949693 54.78381002 29.51067516 53.46295837 23.70947266 51.98486328 C17.80994201 50.48811483 11.89807237 49.06859283 5.95947266 47.73486328 C5.19658936 47.56051758 4.43370605 47.38617188 3.64770508 47.20654297 C-0.56950957 46.26583239 -4.67188396 45.65102747 -8.97802734 45.23486328 C-15.00218542 44.30679491 -19.07789074 41.33512369 -23.94360352 37.88574219 C-38.69947458 27.44715642 -56.03359428 21.10857148 -73.23193359 15.93798828 C-76.43899762 14.96636405 -79.61711674 13.93559569 -82.79052734 12.85986328 C-79.02392263 8.69486768 -75.32771895 6.2302596 -70.29052734 3.79736328 C-69.59145264 3.45374756 -68.89237793 3.11013184 -68.17211914 2.75610352 C-49.59185461 -6.1323104 -18.54732841 -11.8102023 0 0 Z " fill="#F3D1F6" transform="translate(345.79052734375,5.14013671875)"/>
<path d="M0 0 C1.83155891 0.00022659 1.83155891 0.00022659 3.70011902 0.00045776 C5.0189357 0.01078033 6.33775238 0.02110291 7.6965332 0.03173828 C9.05987847 0.03546917 10.42322641 0.03831578 11.78657532 0.04031372 C15.372156 0.04794425 18.95757425 0.06758763 22.54309082 0.08972168 C26.20293989 0.11019267 29.86281524 0.11931811 33.52270508 0.12939453 C40.70181553 0.15083418 47.88079222 0.18496299 55.05981445 0.22705078 C54.27557534 1.66018887 53.4886801 3.09187366 52.70068359 4.52294922 C52.26276993 5.32037537 51.82485626 6.11780151 51.37367249 6.93939209 C41.26644033 24.53786691 24.62897397 40.99947156 6.73168945 50.52001953 C-1.44620505 52.68405302 -8.62309694 50.82397823 -16.31518555 47.85205078 C-17.25982666 47.49699463 -18.20446777 47.14193848 -19.17773438 46.77612305 C-33.11626265 41.39603461 -46.63941184 34.7399039 -58.94018555 26.22705078 C-59.89022461 25.58380859 -60.84026367 24.94056641 -61.8190918 24.27783203 C-66.89657338 20.79633214 -66.89657338 20.79633214 -68.94018555 19.22705078 C-68.94018555 18.89705078 -68.94018555 18.56705078 -68.94018555 18.22705078 C-68.20606445 18.13206299 -67.47194336 18.0370752 -66.71557617 17.93920898 C-45.56529973 15.14974313 -19.65215761 -0.08103983 0 0 Z " fill="#F3D1F6" transform="translate(287.940185546875,460.77294921875)"/>
<path d="M0 0 C-2.22888428 3.9257123 -4.80376195 7.35516967 -7.625 10.875 C-21.53684674 28.6620343 -34.06195591 51.10047262 -37.125 73.6875 C-38.68430879 82.33208908 -43.48364033 86.95603392 -49.30664062 93.11865234 C-52.33378735 96.48185775 -54.99927534 100.11438339 -57.6875 103.75 C-58.2043335 104.442146 -58.72116699 105.13429199 -59.25366211 105.84741211 C-61.8401344 109.28843306 -61.8401344 109.28843306 -64 113 C-64.99 112.67 -65.98 112.34 -67 112 C-68.02138111 109.56323321 -68.82756181 107.27395145 -69.5625 104.75 C-69.77865967 104.02272705 -69.99481934 103.2954541 -70.2175293 102.54614258 C-75.52239955 84.11731792 -75.29033453 65.58520458 -71 47 C-70.75636719 45.88625 -70.51273438 44.7725 -70.26171875 43.625 C-66.42722783 29.37741289 -53.13920953 21.44147794 -41.11328125 14.28125 C-38.43843272 12.78547165 -35.73934349 11.37370019 -33 10 C-32.1646875 9.57074219 -31.329375 9.14148438 -30.46875 8.69921875 C-24.84508978 5.96361295 -19.1026777 3.97799868 -13.125 2.1875 C-12.39909668 1.96827881 -11.67319336 1.74905762 -10.92529297 1.52319336 C-7.20008659 0.45212091 -3.88176554 -0.26639567 0 0 Z " fill="#F3D1F6" transform="translate(94,62)"/>
<path d="M0 0 C0.99515625 0.45890625 1.9903125 0.9178125 3.015625 1.390625 C6.82869835 3.02370656 10.69817332 3.92038608 14.75 4.75 C31.00306941 8.37219491 53.69745361 14.69993128 63.58203125 29.34375 C66.06280179 33.99092347 66.37799268 38.81317865 67 44 C67.09168457 44.75555176 67.18336914 45.51110352 67.27783203 46.28955078 C68.89799543 60.30081162 69.21007697 74.28678976 69.25 88.375 C69.25517639 89.23389832 69.26035278 90.09279663 69.26568604 90.97772217 C69.2773646 93.43063134 69.27424991 95.8830247 69.265625 98.3359375 C69.27156174 99.45307129 69.27156174 99.45307129 69.27761841 100.59277344 C69.23059274 105.76940726 69.23059274 105.76940726 67 108 C66.39414062 106.86304688 65.78828125 105.72609375 65.1640625 104.5546875 C58.1368919 91.53558647 50.64450745 79.44442285 40.3984375 68.671875 C39 67 39 67 39 65 C38.40574219 64.73574219 37.81148438 64.47148437 37.19921875 64.19921875 C34.91897413 62.95581716 33.56934481 61.70815724 31.8125 59.8125 C28.5586747 56.4043985 25.0611714 53.82118572 21.11328125 51.26171875 C17.8133176 47.72996468 16.59267539 43.508662 15 39 C14.68635498 38.13157471 14.37270996 37.26314941 14.04956055 36.3684082 C13.41468665 34.59972538 12.78430603 32.82942387 12.15820312 31.05761719 C8.96218594 22.01938347 5.49208705 13.30092644 1.25 4.703125 C0 2 0 2 0 0 Z " fill="#F3D1F6" transform="translate(411,84)"/>
<path d="M0 0 C0.33 0 0.66 0 1 0 C1.63537879 23.65021052 -0.5670544 47.23602692 -13 68 C-13.49371094 68.85207031 -13.98742187 69.70414062 -14.49609375 70.58203125 C-20.61038591 76.48647251 -30.64649765 77.8812445 -38.75 79.625 C-39.72718994 79.83664795 -40.70437988 80.0482959 -41.71118164 80.26635742 C-55.51635907 83.10189039 -73.05469345 86.48632664 -87 83 C-85.61421546 80.05448479 -84.01171482 77.48114943 -82.1015625 74.84765625 C-81.25851562 73.68266602 -81.25851562 73.68266602 -80.3984375 72.49414062 C-79.52058594 71.29047852 -79.52058594 71.29047852 -78.625 70.0625 C-78.0475 69.26392578 -77.47 68.46535156 -76.875 67.64257812 C-75.75263174 66.09611866 -74.62312773 64.55480775 -73.48583984 63.01928711 C-72.31903486 61.43357498 -71.19097283 59.81934653 -70.078125 58.1953125 C-67.17845777 55.1321302 -63.8909034 53.63018947 -60.125 51.8125 C-36.85249014 39.99607882 -17.04333124 21.40462517 -1 1 C-0.67 0.67 -0.34 0.34 0 0 Z " fill="#F3D1F6" transform="translate(458,356)"/>
</svg>
